<?xml version="1.0" encoding="UTF-8"?>
<svg id="Camada_2" data-name="Camada 2" xmlns="http://www.w3.org/2000/svg" viewBox="0 0 86.07 89.82">
  <defs>
    <style>
      .cls-1 {
        fill: #fafafa;
      }

      .cls-2 {
        fill: #e0b23c;
      }

      .cls-3 {
        stroke: #0e3144;
        stroke-miterlimit: 10;
        stroke-width: .25px;
      }

      .cls-3, .cls-4 {
        fill: #0e3144;
      }

      .cls-5 {
        fill: #fff;
      }

      .cls-6 {
        fill: #16435f;
      }

      .cls-7 {
        fill: #1b546b;
      }

      .cls-8 {
        fill: #e42213;
      }

      .cls-9 {
        fill: #fffdef;
      }
    </style>
  </defs>
  <g id="Camada_1-2" data-name="Camada 1">
    <g>
      <path class="cls-1" d="M35.79,44.94l-3.82.67h0s3.82-.66,3.82-.66v-7.91c0-.08-.02-.25-.08-.44.06.2.07.37.08.45v7.91Z"/>
      <path class="cls-2" d="M42.67,11.78c-.1-.02-.19-.04-.29-.06.09.02.19.04.29.06.79.15,3.98.79,5.15-.76l.08-.13h9.83v-1.34c-1.41-.53-3.47-1.11-5.99-1.14-1.37-.02-2.57.12-3.56.32.11.58.17,1.46-.28,2.16l-.09.14c-1.17,1.56-4.36.92-5.15.76Z"/>
      <path class="cls-2" d="M34.28,10.88h5.54c.22.07.43.15.65.24-.22-.08-.43-.17-.65-.24-.49-.17-1.03-.3-1.79-.37-1.4-.12-2.57.1-3.34.31-.12.02-.26.04-.41.06-.58.07-1.33.11-2.21,0-.21-.03-.42-.06-.64-.1-.37-.08-.72-.17-1.05-.28.32.11.67.2,1.05.28.22.04.43.07.63.1.88.11,1.63.07,2.21,0Z"/>
      <path class="cls-2" d="M59.07,10.88h0s22.88,0,22.88,0v36.41c0,7.78-2.33,15.01-6.32,21.07-6.87,10.44-18.68,17.34-32.09,17.34-9.49,0-18.22-3.37-25.03-8.99h0c-2.6-2.15-4.92-4.63-6.9-7.36-4.7-6.49-7.48-14.45-7.48-23.06V10.88h27.94c-.21-.03-.42-.06-.63-.1-.38-.08-.72-.17-1.05-.28-.97-.32-1.7-.76-2.16-1.07,1.89.25,3.25-.04,4.13-.33,1.94-.65,2.34-1.61,4.65-2.17.24-.06.48-.12.72-.17H0v39.52c0,23.93,19.3,43.34,43.18,43.53.12,0,.24,0,.36,0,.17,0,.34-.01.51-.01,13.37-.16,25.24-6.47,32.93-16.24.45-.57.88-1.16,1.3-1.75,4.9-6.93,7.8-15.39,7.8-24.53V6.76h-27v4.12Z"/>
      <path class="cls-7" d="M23.16,30.22l20.82-5.76-.36-9.38v-.37s-4.43.92-4.43.92l-3.71.78v5.97h0s-6.16,2.18-6.16,2.18v-5.97s-1.26.33-2.69.69c-1.85.47-4.01,1.01-4.22,1.01v10.13l.09-.02.12-.04.54-.15Z"/>
      <path class="cls-3" d="M43.79,58.46l-.03-.81-.15-3.92h0s.15,3.92.15,3.92c-.39-.15-3.71.31-3.71.31l3.74.51.19,4.93h0l-.19-4.93Z"/>
      <path class="cls-3" d="M71.85,66.7l-1.33-2.94-3.98-2.08-1.42-6.53-2.27-.67-1.99-20.17,3.12-3.41.28-10.61-5.2-1.43-.74-.2-.59-.16-.39-.11v5.49h0s0,0,0,0h0s0,0,0,0h0s-1.71-.4-1.71-.4l-.71-.17-.33-.08h0s-2.94-.69-2.94-.69v-5.87l-8.06-1.99.1,2.47.29,7.38-5.79,1.57-15.6,4.24-.13.03-.09.03.52.61,3.14-.79,17.91-4.52h0s0,0,0,0l-1.46,1.72-.03.04h0s-18.17,5.18-18.17,5.18l1.31,1.54,17.99-4.64h0s0,0,0,0h0s0,0,0,0h0v4.64h0s0,0,0,0h0s0,0,0,0h0s-3.38.57-3.38.57h3.38s.02.05.02.05v.03s.01.09.01.09v.06s0,.17,0,.17v.04s0,.23,0,.23v.02s0,.05,0,.05v.23s0,.06,0,.06c0,.75-.04,1.63-.04,1.63h0s0,0,0,0h0s-3.3.57-3.3.57l3.3.47h0s-1.3-.19-1.3-.19l1.3.19v4.64h0s0,0,0,0h0s-3.49.57-3.49.57l1.85.2.29.03,1.35.15.04.71v.16s.08,1.32.08,1.32l.26,4.91,4.85,1.23h0,0s0,0,0,0h0s-4.85,0-4.85,0l-3.44.54-4.4.69.97.15,1.96.3.46.07.29.04,3.78-.47.15,3.92h.03v.81l.19,4.93h0,0s-4.72,0-4.72,0l-6.07,6.53-.29.02-.62.05-4.09.36-2.57.23-2.39,2.05-3.28,2.82,1.89-1.63-1.89,1.63-1.44,1.24c6.81,5.62,15.53,8.99,25.03,8.99,13.4,0,25.21-6.9,32.09-17.34l-1.22-1.08-2.55-.57ZM52.45,44.61v-7.2c0-.28.11-.52.28-.7.17-.18.42-.29.68-.29h.64c.21,0,.37.11.5.27.21.27.31.7.31,1.06l.19,7.1-2.6-.23Z"/>
      <rect class="cls-4" x="43.61" y="34.21" width="0" height="0"/>
      <rect class="cls-4" x="57.35" y="23.89" width="0" height="0"/>
      <polygon class="cls-4" points="29.32 18.59 29.32 24.55 32.26 23.51 32.26 23.51 32.26 23.51 32.26 19.44 31.44 19.2 29.32 18.59 29.32 18.59"/>
      <polygon class="cls-6" points="54.61 23.25 54.61 23.25 55.64 23.49 56.48 23.68 57.35 23.89 57.35 18.39 54.61 19.06 54.61 23.25"/>
      <rect class="cls-6" x="54.61" y="23.25" width="0" height="0" transform="translate(18.81 70.59) rotate(-75.96)"/>
      <polygon class="cls-7" points="22.93 31.03 22.92 31.03 22.99 31.11 23.04 31.16 24.31 32.67 42.49 27.49 42.52 27.45 43.98 25.73 26.07 30.24 22.93 31.03 22.93 31.03"/>
      <polygon class="cls-7" points="22.93 31.03 22.93 31.03 22.93 31.03 22.93 31.03"/>
      <polygon class="cls-7" points="23.04 31.16 22.99 31.11 23.03 31.16 24.31 32.67 24.32 32.67 24.31 32.67 23.04 31.16"/>
      <path class="cls-7" d="M25.62,70.58l6.66-.58.56-.05.35-.03,6.07-6.54h4.72l-.19-4.93-3.74-.51s3.32-.46,3.71-.31l-.15-3.92-2.15.27-1.63.2-.26-.04-.5-.08-2.55-.39-.39-.06h0s0,0,0,0h0s0,0,0,0l4.4-.69,3.44-.54h4.84l-2.87-.73-1.97-.5h0s0,0,0,0l-.18-3.49-.14-2.74v-.17s-.05-.7-.05-.7l-1.13-.12-.5-.05-1.86-.2h0s0,0,0,0l3.5-.57v-4.64l-1.3-.19-2.01-.29h0s0,0,0,0l3.3-.57v-2.65h-3.39,0s-.01,0-.01,0h0s0,0,0,0l2.05-.34,1.35-.23v-4.64l-17.99,4.64-.09.47-2.08,19.51-1.99,1.04-1.77,7.7h.73l9.02.3h0s0,0,0,0c0,0-10.48,1.2-12.96,1.45h-.06s-.1.02-.1.02h-.13s-.04.02-.04.02h-.11s-.03.01-.03.01h-.05s0,0,0,0l-4.36,4.6c1.99,2.74,4.3,5.22,6.9,7.36h0l1.44-1.24,5.67-4.88ZM33.1,57.73l-.12.58-2.09.27-1.25.17.44-1.77h0s0,0,0,0l3.28-.51h0s0,0,0,0l-.26,1.25ZM36.09,47.95s1.11-.18,2.35-.35c1.56-.22,3.35-.44,3.48-.31l.23.24-.19.35-.04.07h0s-2.8.33-2.8.33l-3.03-.33h0s0,0,0,0ZM32.12,37.98c0-.65.26-1.25.67-1.68.41-.43.99-.7,1.62-.7.12,0,.32.02.54.11l.05.02c.08.04.24.13.39.28l.17.24c.07.11.12.23.16.34.06.2.08.37.08.44v7.91l-3.82.67h0s0,0,0,0l.02-.86.13-6.77ZM25.47,39.64l.09-.05,2.48-.6,1.03-.25h.66l-.36.58-1.52.3-1.81.36-.47-.27-.03-.03-.06-.05h0s0,0,0,0ZM28.69,53.87l-2.53.37-2.08.31h0s0,0,0,0l2.36-.84,2.44-.87h6.12-.01s.01,0,.01,0l-6.32,1.03Z"/>
      <rect class="cls-6" x="43.61" y="43.12" width="0" height="0"/>
      <rect class="cls-6" x="43.61" y="37.43" width="0" height="0" transform="translate(-6.49 9.28) rotate(-11.31)"/>
      <rect class="cls-6" x="43.61" y="29.57" width="0" height="0"/>
      <rect class="cls-6" x="36.14" y="53.63" width="0" height="0" transform="translate(-22.45 81) rotate(-81.06)"/>
      <polygon class="cls-3" points="34.99 52.84 28.88 52.84 26.44 53.71 24.09 54.54 26.16 54.24 28.69 53.87 34.99 52.84"/>
      <path class="cls-3" d="M19.69,62.94l-.12.54-3.16,1.1-.44.15h0s.05,0,.05,0h.03s.11-.01.11-.01h.04s.13-.02.13-.02h.1s.06-.02.06-.02c2.47-.25,12.95-1.45,12.95-1.45l-9.02-.3h-.73Z"/>
      <polygon class="cls-3" points="30.08 56.98 29.64 58.75 30.89 58.58 32.98 58.31 33.1 57.73 33.36 56.47 30.08 56.98"/>
      <path class="cls-5" d="M35.79,44.94v-7.91c0-.08-.02-.25-.08-.45-.03-.11-.09-.22-.16-.34l-.17-.23c-.15-.16-.31-.24-.39-.28l-.05-.02c-.23-.1-.42-.11-.54-.11-.63,0-1.2.27-1.62.69-.41.43-.67,1.02-.67,1.68l-.13,6.77-.02.86,3.82-.67Z"/>
      <polygon class="cls-5" points="31.97 45.61 31.99 44.75 31.97 45.61 31.97 45.61"/>
      <path class="cls-9" d="M52.45,44.61l2.6.23-.19-7.1c0-.36-.1-.79-.31-1.06-.13-.16-.29-.27-.5-.27h-.64c-.27,0-.51.11-.68.29-.17.18-.28.43-.28.71v7.2Z"/>
      <path class="cls-3" d="M41.92,47.95l.04-.07.19-.35-.23-.24c-.13-.13-1.92.09-3.48.31-1.24.18-2.33.35-2.35.35l3.03.33,2.8-.33Z"/>
      <polygon class="cls-3" points="25.56 39.72 26.04 39.99 27.85 39.63 29.37 39.33 29.73 38.74 29.07 38.74 28.04 38.99 25.56 39.6 25.47 39.64 25.53 39.7 25.56 39.72"/>
      <polygon class="cls-4" points="59.07 18.86 59.07 10.88 58.33 10.88 58.33 18.66 59.07 18.86"/>
      <path class="cls-4" d="M59.07,2.21c.36-.2.6-.59.6-1.03,0-.65-.52-1.18-1.16-1.18l-.19.02v6.74h.74V2.21Z"/>
      <polygon class="cls-4" points="59.07 6.76 59.07 6.75 58.33 6.75 58.33 10.88 59.07 10.88 59.07 6.76 59.07 6.76"/>
      <rect class="cls-4" x="59.07" y="6.76" width="0" height="4.12"/>
      <path class="cls-8" d="M39.99,6.68c-.84-.16-1.56-.08-2.25.07h2.57c-.1-.03-.21-.05-.32-.07Z"/>
      <path class="cls-8" d="M57.74,2.67v6.87c-1.41-.53-3.47-1.1-5.99-1.14-1.37-.02-2.57.12-3.57.32.11.58.17,1.46-.27,2.16l-.09.14c-1.17,1.55-4.36.91-5.15.76-.1-.02-.19-.04-.29-.06-.82-.19-1.39-.4-1.91-.6-.22-.08-.43-.17-.65-.24-.49-.17-1.03-.3-1.79-.37-1.4-.12-2.57.1-3.34.31-.12.02-.26.04-.41.06h-2.21c-.21-.03-.42-.06-.64-.1-.37-.08-.72-.17-1.04-.28-.97-.33-1.7-.76-2.16-1.07,1.89.25,3.25-.04,4.12-.33,1.95-.65,2.34-1.61,4.65-2.17.25-.07.49-.12.74-.17h0s2.57-.01,2.57-.01c.86.22,1.34.56,2.36.66.93.08,1.72-.11,2.23-.28v-.38c-.01-.51-.02-1.03-.03-1.55.66-.75,1.34-1.31,1.96-1.71,4.27-2.82,9.52-1.29,10.91-.82Z"/>
      <path class="cls-7" d="M57.84,2.7c-.02,1.35-.04,2.7-.06,4.05,0,.42-.01.85-.02,1.27,0,.51-.02,1.02-.02,1.52h0s0,0,0,0h0s0,0,0,0v8.96l.59.16V.02c-.55.09-.97.58-.97,1.17,0,.35.15.66.39.87v.62h.03s.06.03.06.03h.02Z"/>
    </g>
  </g>
</svg>