<?xml version="1.0" encoding="UTF-8"?>
<svg id="Camada_2" data-name="Camada 2" xmlns="http://www.w3.org/2000/svg" viewBox="0 0 90 90">
  <defs>
    <style>
      .cls-1 {
        fill: #fafafa;
      }

      .cls-2 {
        fill: #fff;
      }

      .cls-3 {
        fill: #16435f;
      }

      .cls-4 {
        fill: #0e3144;
      }

      .cls-5 {
        fill: #1b546b;
      }

      .cls-6 {
        fill: #e42213;
      }

      .cls-7 {
        fill: #fffdef;
      }
    </style>
  </defs>
  <g id="Camada_1-2" data-name="Camada 1">
    <g>
      <path class="cls-1" d="M15.98,67.37h0l.47-.49,3.11-.75.12-.53h0l1.76-7.66,1.98-1.04,2.07-19.4.09-.47h0s-2.6-3.06-2.6-3.06l-.09-.11h0l-.51-.61.2-.06-.21.06v-10.08c.38,0,6.88-1.7,6.88-1.7l2.92.85v4.05l-2.92,1.03,6.12-2.17v-5.93l8.09-1.7h0s8.02,1.98,8.02,1.98v5.84l2.92.68v-4.16l2.73-.66h0s.38.11.38.11v-8.91c-1.4-.53-3.45-1.1-5.96-1.14-1.36-.02-2.55.12-3.54.32.11.61.18,1.56-.36,2.28-1.16,1.55-4.34.91-5.12.76-2.18-.44-2.62-1.09-4.62-1.26-1.39-.12-2.55.1-3.32.31-.71.12-1.86.24-3.24-.04-1.49-.3-2.57-.93-3.19-1.34,1.88.25,3.24-.04,4.1-.33,1.93-.65,2.32-1.6,4.63-2.16.93-.23,1.83-.45,2.97-.24,1.07.19,1.53.62,2.67.72.93.08,1.71-.1,2.22-.27-.01-.64-.02-1.28-.03-1.92.66-.75,1.33-1.3,1.95-1.71,4.25-2.8,9.46-1.28,10.85-.81v-.62c-.24-.21-.38-.52-.38-.87,0-.58.42-1.07.97-1.16.06-.01.12-.02.18-.02s.11.03.17.03v-.98c-4.25-1.33-8.77-2.05-13.46-2.05C20.15,0,0,20.15,0,45c0,13.77,6.19,26.09,15.94,34.35l-4.57-7.1,4.62-4.87Z"/>
      <polygon class="cls-2" points="43.47 56.43 43.62 60.32 43.62 60.32 43.47 56.42 39.71 56.9 38.99 56.78 39.72 56.9 43.47 56.43"/>
      <polygon class="cls-2" points="19.91 78.08 25.59 73.19 32.23 72.61 25.59 73.19 19.91 78.08"/>
      <polygon class="cls-2" points="43.65 61.13 43.84 66.03 39.15 66.03 33.11 72.53 33.11 72.53 39.15 66.03 43.84 66.03 43.65 61.13 43.65 61.13 43.65 61.13"/>
      <polygon class="cls-2" points="57.14 26.76 57.14 26.76 55.43 26.36 57.14 26.76"/>
      <path class="cls-2" d="M43.47,37.59v2.64s.1-2.64,0-2.64Z"/>
      <path class="cls-4" d="M35.54,89l-16.66-7.36c4.91,3.51,10.55,6.06,16.66,7.36Z"/>
      <path class="cls-1" d="M59.21,3.5c.14.19.23.42.23.67,0,.44-.24.83-.6,1.03v16.56l5.17,1.42-.28,10.55-3.11,3.39,1.98,20.06,2.26.66,1.42,6.5,3.95,2.07,1.32,2.92,2.54.56,1.7,1.51,2.35,3.3-.09.14.25.43c7.27-7.99,11.7-18.61,11.7-30.27,0-19.54-12.46-36.16-29.86-42.38v.88h-.93Z"/>
      <polygon class="cls-2" points="48.66 55.11 48.66 55.11 43.84 53.88 43.52 47.65 43.84 53.88 48.66 55.11"/>
      <polygon class="cls-2" points="41.82 46.64 40 46.44 40 46.44 41.82 46.64"/>
      <rect class="cls-2" x="40.17" y="41.02" width="3.32" height="0"/>
      <polygon class="cls-2" points="36.04 56.33 40.3 55.66 36.04 56.33 36.04 56.33"/>
      <polygon class="cls-2" points="40.1 37.59 43.47 37.02 43.47 37.02 40.09 37.59 40.1 37.59"/>
      <path class="cls-4" d="M69.98,81.32l-.36-.62-.33.22-19.74,8.86c9.89-.99,18.84-5.2,25.79-11.55l-5.36,3.1Z"/>
      <path class="cls-5" d="M35.38,19.31v5.93l-6.12,2.17v-5.93s-6.5,1.7-6.88,1.7v10.08l.21-.06,21.25-5.88-.37-9.7h0s-8.09,1.69-8.09,1.69Z"/>
      <polygon class="cls-4" points="57.52 21.4 57.52 28.58 58.85 28.58 58.85 21.76 58.11 21.56 57.52 21.4"/>
      <path class="cls-4" d="M69.63,80.7l-.48-.84,8.86-5.11.05.09.09-.14-2.35-3.3-1.7-1.51-2.54-.56-1.32-2.92-3.95-2.07-1.42-6.5-2.26-.66-1.98-20.06,3.11-3.39.28-10.55-5.17-1.42v6.83h-1.32v-7.18l-.38-.11h0s0,0,0,0v5.46h0s0,0,0,0l-1.71-.4-1.02-.24h0s-2.92-.68-2.92-.68v-5.84l-8.02-1.98.39,9.8-21.27,5.78-.2.06.51.61,20.94-5.28-1.49,1.75-18.07,5.15-1.29-1.52,2.6,3.06h0s0,0,0,0l17.89-4.62h0v4.62h0s-3.37.57-3.37.57h3.37c.1,0,0,2.64,0,2.64h0s-3.28.56-3.28.56l3.28.47h0v4.62h0s-3.47.56-3.47.56l1.81.2,1.66.18.04.83.33,6.23,4.82,1.23h0,0s-4.82,0-4.82,0l-3.54.56-4.26.67,2.94.45.73.11,3.76-.47.15,3.9s.03,0,.03.01v.8l.19,4.9h-4.69l-6.04,6.5h0s0,0,0,0l-.88.08-6.65.58-5.68,4.88-2.69,2.31c.54.43,1.1.84,1.66,1.25l16.66,7.36c3.05.65,6.21,1,9.46,1,1.54,0,3.06-.08,4.56-.23l19.74-8.86.33-.22ZM52.27,47.36v-7.16c0-.55.43-.99.96-.99h.64c.55,0,.81.75.81,1.32l.19,7.06-2.59-.23Z"/>
      <polygon class="cls-4" points="43.84 27.32 22.59 33.2 43.86 27.42 43.47 17.62 43.47 17.62 43.84 27.32"/>
      <polygon class="cls-4" points="32.18 26.38 32.18 22.33 29.26 21.48 29.26 27.42 32.18 26.38"/>
      <polygon class="cls-3" points="54.41 26.12 54.41 26.12 55.43 26.36 57.14 26.76 57.14 21.29 54.41 21.95 54.41 26.12"/>
      <polygon class="cls-3" points="54.41 26.12 54.41 26.12 55.43 26.36 54.41 26.12 54.41 26.12"/>
      <rect class="cls-3" x="57.14" y="21.29" width="0" height="5.46"/>
      <polygon class="cls-5" points="22.99 33.97 22.9 33.86 22.9 33.86 22.99 33.97"/>
      <polygon class="cls-5" points="24.28 35.49 42.35 30.34 43.84 28.58 22.9 33.86 22.99 33.97 24.28 35.49"/>
      <path class="cls-5" d="M19.91,78.08l5.68-4.88,6.65-.58.88-.08,6.04-6.5h4.69l-.19-4.9-3.72-.5s3.3-.46,3.69-.31l-.15-3.9-3.76.47-.73-.11-2.95-.45h0s0,0,0,0l4.26-.67,3.54-.56h4.82l-4.82-1.22-.33-6.23-.04-.83-1.66-.18-1.82-.2h0s0,0,0,0l3.48-.56v-4.61l-3.29-.47h0s0,0,0,0l3.29-.56v-2.64h-3.38,0s0,0,0,0l3.38-.57v-4.61l-17.89,4.61-.09.47-2.07,19.4-1.98,1.04-1.76,7.66h.73l8.97.3s-13.77,1.57-13.4,1.48l-4.62,4.87,4.57,7.1c.42.36.85.7,1.28,1.04l2.69-2.31ZM32.9,60.98l-3.33.44.44-1.76,3.27-.5-.38,1.82ZM41.79,50.03l.23.24-.23.42-2.79.33-3.01-.33s5.57-.89,5.8-.66ZM32.04,40.76c0-1.3,1.02-2.36,2.28-2.36.12,0,.31.02.54.11.04.02.25.11.44.31.36.38.4.86.4,1.01v7.86l-3.8.66.14-7.59ZM25.52,42.38l3.48-.85h.66l-.36.58-3.31.66-.47-.27-.09-.08.09-.05ZM28.63,56.57l-4.58.68,4.77-1.7h6.09l-6.28,1.02Z"/>
      <polygon class="cls-5" points="16.45 66.88 15.98 67.37 19.56 66.13 16.45 66.88"/>
      <polygon class="cls-5" points="33.11 72.53 33.11 72.53 32.23 72.61 33.11 72.53"/>
      <polygon class="cls-5" points="43.52 47.65 43.47 46.82 41.82 46.64 43.47 46.82 43.52 47.65"/>
      <rect class="cls-5" x="40.16" y="40.51" width="3.33" height="0" transform="translate(-6.26 7.68) rotate(-9.76)"/>
      <rect class="cls-5" x="39.98" y="46.16" width="3.52" height="0" transform="translate(-6.87 7.3) rotate(-9.24)"/>
      <polygon class="cls-5" points="17.22 80.39 19.91 78.08 17.22 80.39 17.22 80.39"/>
      <rect class="cls-5" x="25.29" y="34.71" width="18.47" height="0" transform="translate(-7.58 9.73) rotate(-14.47)"/>
      <polygon class="cls-5" points="38.99 56.78 36.04 56.33 36.04 56.33 38.99 56.78"/>
      <path class="cls-5" d="M43.47,37.59h0s-3.37,0-3.37,0h0s3.28,0,3.38,0Z"/>
      <polygon class="cls-5" points="40.3 55.66 43.84 55.11 48.66 55.11 48.66 55.11 43.84 55.11 40.3 55.66"/>
      <polygon class="cls-4" points="28.82 55.55 24.05 57.24 28.63 56.57 34.91 55.55 28.82 55.55"/>
      <polygon class="cls-4" points="19.56 66.13 19.68 65.59 19.68 65.59 19.56 66.13"/>
      <path class="cls-4" d="M15.98,67.37h0c-.37.09,13.4-1.48,13.4-1.48l-8.97-.3h-.73l-.12.53-3.58,1.25Z"/>
      <polygon class="cls-4" points="29.58 61.42 32.9 60.98 33.28 59.16 30.01 59.66 29.58 61.42"/>
      <polygon class="cls-4" points="43.65 61.13 43.65 61.13 43.65 61.13 43.62 60.32 43.62 60.32 43.65 61.13"/>
      <path class="cls-4" d="M43.65,60.33s-.02,0-.03-.01l.03.81v-.8Z"/>
      <path class="cls-4" d="M39.94,60.63l3.72.5-.03-.81c-.39-.15-3.69.31-3.69.31Z"/>
      <path class="cls-2" d="M35.7,39.83c0-.15-.04-.63-.4-1.01-.19-.2-.4-.29-.44-.31-.22-.1-.42-.11-.54-.11-1.26,0-2.28,1.06-2.28,2.36l-.14,7.59,3.8-.66v-7.86Z"/>
      <path class="cls-7" d="M53.86,39.21h-.64c-.53,0-.96.44-.96.99v7.16l2.59.23-.19-7.06c0-.57-.26-1.32-.81-1.32Z"/>
      <path class="cls-4" d="M41.79,50.69l.23-.42-.23-.24c-.23-.24-5.8.66-5.8.66l3.01.33,2.79-.33Z"/>
      <polygon class="cls-4" points="26 42.77 29.31 42.11 29.67 41.53 29.01 41.53 25.52 42.38 25.43 42.42 25.52 42.5 26 42.77"/>
      <path class="cls-4" d="M59.45,4.17c0-.26-.1-.48-.23-.67h-.75v-.47c-.06,0-.11-.03-.17-.03s-.12,0-.18.02v18.54l.74.2V5.2c.36-.19.6-.58.6-1.03Z"/>
      <path class="cls-6" d="M46.68,6.47c-.62.41-1.29.96-1.95,1.71.01.64.02,1.28.03,1.92-.51.17-1.29.35-2.22.27-1.14-.1-1.59-.52-2.67-.72-1.14-.21-2.04.01-2.97.24-2.3.56-2.69,1.51-4.63,2.16-.87.29-2.22.58-4.1.33.62.42,1.7,1.04,3.19,1.34,1.37.28,2.53.16,3.24.04.77-.21,1.93-.43,3.32-.31,2,.17,2.43.83,4.62,1.26.78.15,3.96.79,5.12-.76.54-.72.47-1.67.36-2.28.99-.19,2.18-.34,3.54-.32,2.51.04,4.56.61,5.96,1.14v-6.83c-1.39-.47-6.6-1.99-10.85.81Z"/>
      <path class="cls-3" d="M58.11,3.02c-.55.09-.97.57-.97,1.16,0,.34.15.66.38.87v.62s.02,0,.03,0c.03,0,.05.02.07.02-.03,1.76-.05,3.53-.07,5.29,0,.5-.02,1.01-.02,1.51,0,0,0,0,0,0v8.91l.58.16V3.02Z"/>
      <path class="cls-3" d="M57.55,10.98c.03-1.76.05-3.53.07-5.29-.02,0-.05-.02-.07-.02,0,0-.02,0-.03,0v6.83s0,0,0,0c0-.5.02-1.01.02-1.51Z"/>
      <path class="cls-1" d="M59.21,3.5h.93v-.88c-.56-.2-1.12-.39-1.68-.57v.98c.31.05.57.22.75.47Z"/>
      <path class="cls-4" d="M59.21,3.5c-.18-.25-.44-.42-.75-.47v.47h.75Z"/>
      <path class="cls-2" d="M75.35,78.22l3.49-2.02-.54-.94c-.94,1.03-1.92,2.02-2.95,2.96Z"/>
      <path class="cls-4" d="M77.58,75.55l-7.95,5.15.36.62,5.36-3.1c1.03-.94,2.01-1.92,2.95-2.96l-.25-.43-.47.71Z"/>
      <polygon class="cls-4" points="78.05 74.84 78 74.75 69.14 79.86 69.63 80.7 77.58 75.55 78.05 74.84"/>
    </g>
  </g>
</svg>